<?xml version="1.0" encoding="UTF-8" standalone="no"?>
<!-- Created with Inkscape (http://www.inkscape.org/) -->

<svg
   xmlns:dc="http://purl.org/dc/elements/1.1/"
   xmlns:cc="http://creativecommons.org/ns#"
   xmlns:rdf="http://www.w3.org/1999/02/22-rdf-syntax-ns#"
   xmlns:svg="http://www.w3.org/2000/svg"
   xmlns="http://www.w3.org/2000/svg"
   xmlns:sodipodi="http://sodipodi.sourceforge.net/DTD/sodipodi-0.dtd"
   xmlns:inkscape="http://www.inkscape.org/namespaces/inkscape"
   width="140mm"
   height="85mm"
   viewBox="0 0 496.06299 301.1811"
   id="svg2"
   version="1.1"
   inkscape:version="0.91 r13725"
   sodipodi:docname="arrow_left2right.svg">
  <defs
     id="defs4" />
  <sodipodi:namedview
     id="base"
     pagecolor="#ffffff"
     bordercolor="#666666"
     borderopacity="1.0"
     inkscape:pageopacity="0.0"
     inkscape:pageshadow="2"
     inkscape:zoom="0.35"
     inkscape:cx="522.57904"
     inkscape:cy="520"
     inkscape:document-units="px"
     inkscape:current-layer="layer1"
     showgrid="false"
     inkscape:window-width="1543"
     inkscape:window-height="879"
     inkscape:window-x="57"
     inkscape:window-y="21"
     inkscape:window-maximized="1" />
  <metadata
     id="metadata7">
    <rdf:RDF>
      <cc:Work
         rdf:about="">
        <dc:format>image/svg+xml</dc:format>
        <dc:type
           rdf:resource="http://purl.org/dc/dcmitype/StillImage" />
        <dc:title></dc:title>
      </cc:Work>
    </rdf:RDF>
  </metadata>
  <g
     inkscape:label="Ebene 1"
     inkscape:groupmode="layer"
     id="layer1"
     transform="translate(0,-751.18111)">
    <path
       style="opacity:1;fill:#000000;fill-opacity:1;fill-rule:nonzero;stroke:#ffffff;stroke-width:1.20000005;stroke-linecap:round;stroke-linejoin:round;stroke-miterlimit:4;stroke-dasharray:none;stroke-opacity:1"
       id="path4136"
       d="m 1.6628357,876.31585 c 6.88582,-5.10474 14.2855503,-9.42132 21.6367203,-13.80412 19.28127,-13.4533 40.27612,-22.62175 61.04623,-32.95613 9.1555,-5.3573 19.485534,-8.08338 29.614634,-10.93257 11.26118,-2.85807 22.19888,-6.48527 33.70332,-8.30958 9.36786,-2.21778 18.88097,-3.58128 28.48286,-4.13617 8.77974,-0.424 17.57428,-0.42091 26.36228,-0.40504 7.94712,-0.002 15.89534,0.0386 23.84221,-0.0545 8.61139,0.10025 17.2227,0.14456 25.83457,0.10872 8.24753,-0.0345 16.45139,-0.63462 24.48623,1.46873 6.41764,0.92942 11.26722,5.19309 17.18665,7.31632 6.61504,3.2146 13.6097,5.32642 20.76217,6.95762 5.79248,0.18945 10.45702,3.43598 15.75924,5.36003 4.8602,1.24454 9.51581,3.48179 13.713,6.31344 3.5066,2.0492 7.34513,3.58964 11.16209,4.91596 3.33103,0.64218 5.99059,2.61762 8.93016,4.18609 1.11515,1.18692 2.01116,2.55013 2.9617,3.86601 0,0 -36.55494,21.63476 -36.55494,21.63476 l 0,0 c -0.60214,-0.81148 -1.17035,-1.77892 -2.07708,-2.28828 -2.66145,-1.59174 -5.36122,-2.94474 -8.36169,-3.8085 -3.97057,-1.64634 -8.0359,-3.11322 -11.55975,-5.65098 -4.20636,-2.43993 -8.65753,-4.18644 -13.2717,-5.66759 -4.98014,-2.13871 -9.79548,-4.36755 -15.24894,-5.05447 -7.17753,-2.02588 -14.29249,-4.25603 -21.07889,-7.38825 -5.55315,-2.3809 -10.57918,-5.85695 -16.69009,-6.81862 -7.89561,-1.30274 -15.86696,-0.67714 -23.84037,-0.84209 -8.70562,-0.0382 -17.41066,0.009 -26.11598,0.0884 -7.85925,-0.11952 -15.72063,-0.11168 -23.58042,-0.12114 -8.72228,0.0385 -17.45338,0.0238 -26.15989,0.6266 -9.42729,0.83314 -18.74523,2.36936 -28.00965,4.30325 -11.35669,2.17766 -22.309544,5.78341 -33.489974,8.68966 -10.10231,2.91107 -20.04772,6.34967 -29.21393,11.59977 -14.97868,7.5178 -53.5283103,26.23318 10.20238,-7.94693 -7.11096,4.19827 -14.3109,8.26148 -21.02471,13.07747 0,0 -39.4084403,15.67216 -39.4084403,15.67216 z"
       inkscape:connector-curvature="0" />
    <path
       style="opacity:1;fill:#000000;fill-opacity:1;fill-rule:nonzero;stroke:#ffffff;stroke-width:1.20000005;stroke-linecap:round;stroke-linejoin:round;stroke-miterlimit:4;stroke-dasharray:none;stroke-opacity:1"
       id="path4138"
       d="m 35.506946,932.86733 c 8.20415,-2.9038 16.18889,-6.18551 24.59952,-8.54031 13.92175,-3.97554 28.18889,-6.38269 42.172714,-10.16159 17.3855,-3.77742 34.43452,-8.89777 51.76686,-12.87437 12.33492,-1.86383 24.57636,-4.41571 36.96806,-5.89162 8.77469,-1.05305 17.61877,-1.00492 26.44011,-1.01352 11.23801,0.0572 22.47606,0.0632 33.71405,0.1064 12.06825,-0.005 24.13674,0.0567 36.20489,0.0184 11.67767,-0.82506 22.79948,0.80583 33.78815,4.67517 6.39722,3.69917 14.38794,5.03824 20.2769,9.57665 4.8081,3.36363 8.33501,7.96873 13.13773,11.39954 0.61768,0.39998 1.23536,0.79997 1.85305,1.19996 0,0 -35.66305,22.68994 -35.66305,22.68994 l 0,0 c -0.60525,-0.46726 -1.21051,-0.93451 -1.81576,-1.40176 -4.50508,-3.66474 -8.26728,-8.18325 -13.28001,-11.17459 -5.81107,-3.8016 -12.46461,-6.25226 -18.78789,-9.02479 -10.76368,-3.34422 -21.65822,-4.23477 -32.91879,-3.66748 -12.0698,-0.0429 -24.13995,0.0129 -36.20986,-0.0198 -11.30994,0.0169 -22.62011,-0.0407 -33.92971,0.0987 -8.72868,0.13499 -17.4709,0.33823 -26.14628,1.40043 -12.06705,1.59878 -24.10902,3.50335 -36.07079,5.74268 -17.24552,4.02255 -34.311264,8.7912 -51.543894,12.87508 -14.20014,3.74101 -28.68071,6.32311 -42.70032,10.73556 -8.53652,2.76581 -16.8038,6.20482 -25.1662203,9.44552 0,0 33.3105403,-26.19412 33.3105403,-26.19412 z"
       inkscape:connector-curvature="0" />
    <path
       style="opacity:1;fill:#000000;fill-opacity:1;fill-rule:nonzero;stroke:#ffffff;stroke-width:1.20000005;stroke-linecap:round;stroke-linejoin:round;stroke-miterlimit:4;stroke-dasharray:none;stroke-opacity:1"
       id="path4140"
       d="m 357.29436,757.06632 c 14.5442,10.91646 27.91172,23.47062 40.91549,36.18691 8.03122,6.87503 15.29237,14.60743 23.32198,21.48265 6.82872,5.84698 14.20424,11.1339 21.29707,16.65423 13.00394,9.65616 22.33218,22.76788 32.55313,35.06606 3.13727,4.94317 11.79549,13.72587 10.18422,20.36026 -0.64382,2.65094 -2.24099,4.97452 -3.36149,7.46179 -3.03117,3.27189 -5.8143,6.79242 -9.09351,9.81568 -5.94117,5.47745 -23.37479,18.54994 -29.2601,22.95411 -17.11898,12.81069 -34.5297,25.1328 -52.15648,37.22988 -27.63876,17.98908 -54.06233,37.73781 -81.53641,55.97971 -8.88427,5.6172 -17.54712,11.5701 -26.331,17.3406 0,0 -38.69256,15.05 -38.69256,15.05 l 0,0 c 9.58182,-5.952 18.91651,-12.2764 28.54608,-18.1527 28.1642,-18.1961 54.87223,-38.47878 83.12529,-56.52639 17.64102,-11.92967 35.0056,-24.1017 51.99727,-36.94729 3.17771,-2.40233 23.81555,-18.20076 27.77568,-21.69473 2.92073,-2.57693 5.47036,-5.54619 8.20554,-8.31928 1.19683,-1.67302 2.75797,-3.13801 3.59049,-5.01905 2.21673,-5.00865 -6.11169,-14.61839 -8.32544,-18.42538 -9.51861,-12.47075 -18.81963,-25.10219 -31.59739,-34.54327 -15.38544,-12.25629 -30.30652,-24.96958 -44.265,-38.85994 -13.04039,-12.69195 -26.66098,-25.24642 -42.41117,-34.51302 0,0 35.51831,-22.58083 35.51831,-22.58083 z"
       inkscape:connector-curvature="0" />
  </g>
</svg>
