<!-- Generated by IcoMoon.io -->
<svg version="1.1" xmlns="http://www.w3.org/2000/svg" width="946" height="1024" viewBox="0 0 946 1024">
<title></title>
<g id="icomoon-ignore">
</g>
<path d="M449.427 1023.859c-8.611-0.467-18.442-2.761-27.428-6.4-9.65-3.907-19.886-10.182-28.982-17.766-3.978-3.317-5.616-4.826-10.081-9.285-6.802-6.794-11.873-12.677-17.932-20.798-21.375-28.655-40.17-67.796-55.855-116.319-5.81-17.975-10.012-32.799-14.845-52.376-0.97-3.931-1.786-7.213-1.812-7.292-0.030-0.092-1.89 0.396-5.094 1.337-5.33 1.564-14.122 4.029-18.044 5.060-1.287 0.338-2.388 0.657-2.448 0.708s-0.221 1.045-0.358 2.208c-1.004 8.513-3.63 18.489-6.868 26.089-1.080 2.535-4.687 9.717-6.063 12.072-4.207 7.201-9.312 13.719-15.668 20.006-7.51 7.428-14.897 12.798-23.96 17.419-6.056 3.088-8.92 4.3-14.491 6.134-7.609 2.505-16.101 4.174-23.914 4.701-2.464 0.166-11.741 0.163-14.231-0.004-9.578-0.644-20.394-3.123-29.526-6.766-5.363-2.14-13.512-6.442-18.406-9.718-10.385-6.952-20.044-16.645-27.019-27.115-2.296-3.447-3.904-6.269-6.258-10.982-3.351-6.71-5.446-12.307-7.175-19.169l-0.819-3.249-4.136-1.378c-6.683-2.227-10.639-3.811-15.833-6.341-5.050-2.46-8.35-4.343-12.834-7.323-14.062-9.345-24.469-21.251-31.245-35.745-4.063-8.69-6.783-18.944-7.801-29.401-0.292-2.999-0.335-15.164-0.066-18.455 0.74-9.040 2.482-18.411 5.16-27.748 0.935-3.259 3.647-11.4 4.92-14.767 4.845-12.817 11.958-27.205 20.424-41.314 8.319-13.864 18.857-29.028 30.078-43.279 19.187-24.369 40.369-47.264 68.944-74.52l1.415-1.35-1.157-1.121c-0.636-0.617-3.409-3.293-6.161-5.948-5.481-5.287-16.806-16.635-21.513-21.556-19.628-20.522-36.566-40.525-50.536-59.684-8.323-11.415-17.017-24.689-22.94-35.026-3.497-6.103-8.943-16.634-11.577-22.386-9.432-20.598-14.848-40.388-15.859-57.947-0.173-3.002-0.172-11.155 0.001-14.027 0.572-9.462 2.738-19.166 6.26-28.035 1.018-2.563 3.631-7.949 5.045-10.397 2.211-3.828 5.37-8.338 8.384-11.969 2.175-2.62 8.231-8.668 10.912-10.898 8.534-7.097 18.522-12.933 29.724-17.368 4.927-1.95 12.472-4.37 18.168-5.826 13.597-3.475 28.181-5.43 45.163-6.055 4.519-0.166 18.381-0.166 23.329 0 27.338 0.917 56.85 4.938 90.15 12.283 16.383 3.613 35.721 8.62 51.759 13.401 1.315 0.392 2.434 0.666 2.487 0.609s0.52-1.859 1.039-4.003c1.173-4.85 3.39-13.489 4.87-18.975 1.091-4.044 3.272-11.889 3.394-12.207 0.035-0.092-0.637-0.623-1.601-1.266-10.249-6.833-20.009-16.633-26.966-27.077-2.296-3.447-3.904-6.269-6.258-10.982-2.51-5.026-3.806-8.152-5.388-12.996-2.593-7.937-4.249-16.505-4.699-24.304-0.168-2.919-0.169-10.321-0.001-13.257 0.542-9.484 3.081-20.758 6.761-30.022 1.185-2.982 5.248-11.16 6.973-14.036 6.449-10.748 14.858-20.156 24.894-27.85 4.94-3.787 9.672-6.69 16.148-9.906 6.778-3.366 11.884-5.282 18.715-7.022 5.34-1.361 9.059-2.050 14.491-2.687 2.376-0.278 3.031-0.297 10.462-0.297 8.414 0 8.793 0.020 13.971 0.732 8.639 1.187 19.351 4.263 26.274 7.544l1.386 0.657 1.879-1.372c2.417-1.764 7.189-4.925 9.59-6.352 12.713-7.555 26.755-12.091 40.184-12.98 3.166-0.21 12.244-0.090 14.782 0.195 8.493 0.953 16.873 3.121 24.956 6.457 4.054 1.673 10.533 5.025 14.464 7.483 8.379 5.24 15.314 10.774 23.011 18.365 4.763 4.697 7.975 8.194 12.238 13.322 8.896 10.701 17.949 24.135 26.145 38.795 4.6 8.227 10.409 19.817 14.853 29.632 14.078 31.092 27.275 70.983 37.374 112.973 0.408 1.698 0.799 3.087 0.868 3.087s0.982-0.26 2.030-0.578c5.159-1.567 16.702-4.806 23.804-6.681 40.166-10.601 77.44-17.051 109.366-18.925 7.152-0.42 9.135-0.478 18.715-0.549 11.995-0.089 18.923 0.117 27.162 0.808 12.314 1.033 24.714 3.137 34.852 5.912 7.295 1.997 15.087 4.716 20.594 7.185 9.738 4.367 18.083 9.535 25.588 15.848 2.34 1.969 7.928 7.525 9.824 9.769 0.78 0.923 1.948 2.209 2.596 2.859s1.531 1.708 1.962 2.351c1.418 2.117 5.374 9.141 6.991 12.414 5.103 10.328 8.15 22.259 8.779 34.373 0.26 5.012 0.122 12.127-0.331 17.090-1.214 13.303-5.062 28.364-11.175 43.733-4.696 11.809-11.337 25.004-19.1 37.95-21.517 35.886-53.117 73.809-94.981 113.986l-2.834 2.72 1.014 0.977c8.494 8.182 11.577 11.197 16.791 16.419l6.159 6.169 1.509-0.71c6.883-3.239 16.882-6.198 25.357-7.502 5.674-0.873 6.507-0.924 15.141-0.924 8.414 0 8.793 0.020 13.971 0.732 7.601 1.045 16.748 3.521 23.733 6.426 2.401 0.998 9.99 4.777 12.425 6.187 6.834 3.955 13.716 9.293 19.736 15.308 5.892 5.886 10.905 12.307 15.042 19.269 1.629 2.741 5.701 10.994 6.88 13.943 2.516 6.294 4.622 13.976 5.735 20.924 0.952 5.936 0.991 6.552 0.991 15.661 0 7.764-0.018 8.403-0.296 10.787-1.128 9.644-3.638 19.412-7.039 27.394-1.080 2.535-4.687 9.717-6.063 12.072-3.012 5.157-6.577 10.062-10.987 15.12-2.189 2.51-7.342 7.583-9.94 9.784l-2.093 1.774 0.228 1.339c1.157 6.794 1.644 13.782 1.51 21.674-0.124 7.3-0.625 11.923-1.984 18.325-0.969 4.562-2.725 10.34-4.466 14.687-1.004 2.508-3.791 8.174-5.21 10.592-1.384 2.357-4.592 7.118-6.111 9.067-4.7 6.033-10.575 11.795-16.821 16.501-2.295 1.729-7.992 5.48-10.527 6.931-4.68 2.679-9.958 5.215-15.105 7.257-15.866 6.296-34.638 10.231-55.206 11.57-6.776 0.441-9.89 0.523-19.95 0.521-9.942-0.001-13.199-0.082-20.924-0.517-35.777-2.017-78.645-9.884-123.987-22.752-4.681-1.328-12.532-3.62-12.94-3.776-0.103-0.039-0.355 0.787-0.767 2.516-9.772 40.934-21.867 78.359-35.349 109.388-7.244 16.67-15.79 33.315-23.679 46.118-8.247 13.384-16.184 24.181-25.107 34.154-2.57 2.872-8.932 9.258-11.642 11.685-9.62 8.617-19.071 15.022-29.153 19.756-7.481 3.513-15.958 6.142-24.080 7.468-5.462 0.892-12.336 1.202-18.839 0.849zM459.559 975.98c7.349-1.024 14.865-4.268 22.176-9.572 9.64-6.994 18.859-16.824 28.207-30.076 7.723-10.948 15.831-25.19 23.008-40.413 13.627-28.904 25.42-63.121 35.386-102.673 2.086-8.278 3.939-16.198 3.816-16.313-0.059-0.055-1.862-0.727-4.007-1.493-33.485-11.958-70.614-27.458-106.583-44.494-2.437-1.154-4.491-2.098-4.565-2.098s-2.174 0.972-4.667 2.159c-38.050 18.123-78.533 34.987-113.392 47.235l-0.857 0.301 0.111 0.463c3.020 12.656 4.41 18.193 6.679 26.613 9.055 33.604 19.462 62.981 31.473 88.843 6.899 14.856 15.423 30.007 22.971 40.83 12.42 17.809 24.899 29.938 37.241 36.195 5.427 2.751 9.995 4.109 15.921 4.733 1.084 0.114 5.65-0.041 7.083-0.241zM176.623 863.116c6.566-0.774 14.342-2.755 19.706-5.021 3.854-1.628 9.328-4.553 12.591-6.728 8.506-5.67 16.034-13.464 21.459-22.216 1.459-2.354 4.775-8.927 5.754-11.408 2.163-5.478 3.842-12.197 4.658-18.65 0.339-2.676 0.338-13.71-0.001-16.376-0.419-3.295-0.988-6.341-1.784-9.547-1.428-5.749-2.707-9.194-5.455-14.688-3.123-6.244-5.535-9.886-10.111-15.271-4.624-5.441-10.949-10.753-17.478-14.677-2.158-1.297-8.383-4.382-10.619-5.263-5.505-2.168-12.246-3.843-18.719-4.651-2.767-0.345-13.353-0.345-16.116 0-4.799 0.6-10.35 1.8-14.559 3.148-5.927 1.898-13.307 5.549-18.664 9.232-8.499 5.845-15.92 13.789-21.232 22.732-1.37 2.307-4.148 7.911-5.056 10.202-2.268 5.72-4.055 13.044-4.772 19.56-0.326 2.959-0.328 11.696-0.003 14.686 0.725 6.681 2.371 13.476 4.723 19.495 0.932 2.385 3.75 8.083 5.173 10.462 2.431 4.061 4.322 6.642 8.051 10.982 3.32 3.865 8.034 8.069 12.835 11.448 3.492 2.457 9.797 5.88 14.075 7.64 5.702 2.346 13.563 4.308 19.82 4.947 2.943 0.3 3.12 0.306 8.513 0.265 3.986-0.030 5.377-0.089 7.213-0.306zM167.201 842.231c-0.357-0.027-1.498-0.112-2.534-0.189-11.597-0.861-21.729-4.557-29.502-10.762-7.403-5.909-12.591-13.713-15.273-22.972-3.408-11.764-2.943-26.775 1.172-37.871 0.776-2.093 2.771-6.149 3.957-8.048 5.257-8.414 13.402-14.983 23.049-18.587 8.836-3.301 20.226-4.522 30.894-3.31 7.089 0.805 13.967 2.795 20.632 5.969l1.852 0.882v20.49l-1.462-0.959c-8.305-5.446-16.409-8.093-25.571-8.354-7.744-0.22-13.957 1.494-19.040 5.255-1.515 1.121-3.925 3.537-5.091 5.103-3.382 4.544-5.273 9.655-6.106 16.506-0.283 2.328-0.325 8.757-0.072 11.047 0.942 8.52 3.663 14.797 8.539 19.698 4.548 4.571 9.975 6.95 17.351 7.606 3.39 0.301 8.766-0.040 12.411-0.789 6.080-1.248 12.218-3.886 17.903-7.694l1.137-0.762v20.502l-1.852 0.882c-7.084 3.373-14.088 5.325-21.939 6.112-1.882 0.189-8.995 0.356-10.455 0.246zM781.874 771.344c27.326-0.846 47.293-5.364 61.504-13.917 10.367-6.239 16.727-14.69 19.137-25.429 0.536-2.387 0.932-5.733 1.161-9.81 0.047-0.834 0.022-1.137-0.092-1.137-0.086 0-0.653 0.085-1.261 0.189-1.521 0.26-5.527 0.696-7.798 0.849-2.464 0.166-11.741 0.163-14.231-0.004-9.578-0.644-20.394-3.123-29.526-6.766-3.456-1.379-10.89-5.079-14.182-7.060-10.228-6.154-18.799-13.683-26.492-23.274-2.636-3.286-5.156-6.934-7.453-10.787-1.874-3.145-5.579-10.631-6.85-13.842-3.791-9.577-6.232-20.41-6.793-30.151-0.168-2.919-0.169-10.321-0.001-13.257 0.542-9.484 3.081-20.758 6.761-30.022 1.185-2.982 5.248-11.16 6.973-14.036 1.366-2.277 3.864-6.074 4.802-7.301 0.31-0.406 0.564-0.789 0.564-0.851 0-0.259-12.83-12.846-19.485-19.117l-2.914-2.746-0.79 0.689c-2.845 2.48-12.168 10.273-18.075 15.11-24.517 20.072-51.79 40.519-79.712 59.76-1.954 1.346-3.57 2.513-3.592 2.593s-0.255 2.865-0.519 6.188c-2.986 37.659-8.060 77.145-14.622 113.785-0.358 2.001-0.652 3.704-0.652 3.784s2.182 0.796 4.849 1.592c54.312 16.207 102.29 24.647 142.532 25.072 1.394 0.015 4.435-0.032 6.758-0.104zM74.975 759.259c0.489-1.465 1.319-3.745 1.843-5.068 1.181-2.979 5.238-11.148 6.972-14.036 6.449-10.748 14.858-20.156 24.894-27.85 4.94-3.787 9.672-6.69 16.148-9.906 6.778-3.366 11.884-5.282 18.715-7.022 5.34-1.361 9.059-2.050 14.491-2.687 2.376-0.278 3.031-0.297 10.462-0.297 8.414 0 8.793 0.020 13.971 0.732 7.601 1.045 16.748 3.521 23.733 6.426 2.401 0.998 9.99 4.777 12.425 6.187 6.834 3.955 13.716 9.293 19.736 15.308 5.898 5.892 10.904 12.306 15.052 19.286 0.989 1.664 5.669 10.882 6.164 12.139 0.119 0.304 0.265 0.552 0.323 0.552 0.405 0 15.586-4.348 21.388-6.126l1.282-0.393-0.069-0.412c-0.038-0.227-0.458-2.576-0.934-5.221-6.794-37.79-11.83-77.708-15.086-119.568-0.117-1.501-0.221-2.735-0.232-2.743-21.907-14.904-48.772-34.746-70.786-52.281-8.632-6.876-24.755-20.151-28.161-23.187l-0.284-0.253-2.251 2.118c-14.249 13.411-27.442 26.696-38.768 39.037-32.016 34.886-54.764 67.187-67.446 95.769-5.836 13.154-9.281 24.828-10.458 35.439-0.466 4.2-0.582 6.898-0.414 9.599 0.442 7.113 1.584 11.913 4.039 16.979 3.271 6.75 8.842 12.578 16.246 16.996 1.931 1.152 5.856 3.226 6.013 3.178 0.055-0.017 0.5-1.229 0.99-2.694zM329.723 734.933c25.571-9.256 56.752-21.973 80.892-32.99l0.898-0.41-1.288-0.684c-34.789-18.486-63.82-35.229-93.953-54.188-2.357-1.483-3.653-2.227-3.678-2.113-0.079 0.362 1.614 16.034 2.775 25.685 2.477 20.587 5.555 41.411 8.965 60.647 0.534 3.012 0.971 5.519 0.971 5.57s0.102 0.054 0.227 0.006c0.125-0.048 2.011-0.733 4.191-1.523zM584.976 734.752c0-0.041 0.349-2.044 0.775-4.451 4.306-24.312 8.147-51.852 10.93-78.37 0.295-2.811 0.506-5.141 0.469-5.178s-2.923 1.712-6.413 3.888c-27.32 17.031-56.562 33.908-84.162 48.574-2.198 1.168-3.996 2.163-3.996 2.212 0 0.089 1.579 0.803 9.552 4.317 22.096 9.739 45.324 19.091 67.907 27.341 4.798 1.753 4.939 1.8 4.939 1.667zM855.564 695.85c6.566-0.774 14.342-2.755 19.706-5.021 3.854-1.628 9.328-4.553 12.591-6.728 8.506-5.67 16.034-13.464 21.459-22.216 1.459-2.354 4.775-8.927 5.754-11.408 2.163-5.478 3.842-12.197 4.658-18.65 0.339-2.676 0.338-13.71-0.001-16.376-0.419-3.295-0.988-6.341-1.784-9.547-1.428-5.749-2.707-9.194-5.455-14.688-3.123-6.244-5.535-9.886-10.111-15.271-4.624-5.441-10.949-10.753-17.478-14.677-2.158-1.297-8.383-4.382-10.619-5.263-5.505-2.168-12.246-3.843-18.719-4.651-2.767-0.345-13.353-0.345-16.116 0-4.799 0.6-10.35 1.8-14.559 3.148-5.927 1.898-13.307 5.549-18.664 9.232-8.499 5.845-15.92 13.789-21.232 22.732-1.37 2.307-4.148 7.911-5.056 10.202-2.268 5.72-4.055 13.044-4.772 19.56-0.326 2.959-0.328 11.696-0.003 14.686 0.725 6.681 2.371 13.476 4.723 19.495 0.932 2.385 3.75 8.083 5.173 10.462 2.431 4.061 4.322 6.642 8.051 10.982 3.32 3.865 8.034 8.069 12.835 11.448 3.492 2.457 9.797 5.88 14.075 7.64 5.702 2.346 13.563 4.308 19.82 4.947 2.943 0.3 3.12 0.306 8.513 0.265 3.986-0.030 5.377-0.089 7.213-0.306zM818.524 623.056v-49.257h25.473v79.279h44.578v19.235h-70.052v-49.257zM462.862 672.459c43.605-22.124 90.433-49.277 131.886-76.473 2.479-1.626 2.694-1.798 2.756-2.196 0.037-0.237 0.128-1.601 0.203-3.031s0.222-4.208 0.328-6.173c2.343-43.631 2.561-87.848 0.649-131.785-0.362-8.313-1.151-23.26-1.302-24.635l-0.072-0.656-2.106-1.378c-37.4-24.475-77.158-47.817-116.996-68.689-6.681-3.501-14.030-7.282-18.203-9.368l-3.127-1.563-7.401 3.767c-47.080 23.961-90.345 48.989-133.922 77.471l-3.054 1.996-0.153 2.462c-1.735 28.001-2.617 64.047-2.273 92.822 0.281 23.436 1.040 46.426 2.101 63.65 0.070 1.144 0.128 2.331 0.129 2.638v0.558l3.625 2.39c34.129 22.503 74.195 46.198 112.24 66.378 9.296 4.931 28.426 14.783 28.711 14.787 0.065 0.001 2.756-1.336 5.978-2.972zM449.162 609.071c-7.336-0.412-13.162-1.265-19.507-2.855-15.066-3.776-28.453-10.72-40.407-20.961-2.26-1.936-7.961-7.637-9.897-9.897-13.141-15.34-21.078-33.535-23.299-53.416-0.424-3.793-0.521-5.786-0.521-10.657 0-8.686 0.833-15.584 2.859-23.666 3.776-15.066 10.72-28.453 20.961-40.407 1.936-2.26 7.637-7.961 9.897-9.897 15.34-13.141 33.535-21.078 53.416-23.299 3.793-0.424 5.786-0.521 10.657-0.521 8.686 0 15.584 0.833 23.666 2.859 15.066 3.776 28.453 10.72 40.407 20.961 2.26 1.936 7.961 7.637 9.897 9.897 13.141 15.34 21.078 33.535 23.299 53.416 0.424 3.793 0.521 5.786 0.521 10.657 0 8.686-0.833 15.584-2.859 23.666-3.776 15.066-10.72 28.453-20.961 40.407-1.936 2.26-7.637 7.961-9.897 9.897-7.179 6.15-14.805 11.067-23.024 14.846-10.813 4.971-21.625 7.775-33.901 8.793-1.65 0.137-9.764 0.264-11.307 0.177zM458.779 582.895c11.038-0.851 21.903-4.32 31.406-10.027 7.843-4.71 14.307-10.445 19.944-17.692l1.133-1.457-28.97-0.033c-15.934-0.018-42.007-0.018-57.941 0l-28.97 0.033 1.133 1.457c5.637 7.248 12.101 12.982 19.944 17.692 9.582 5.755 20.731 9.291 31.6 10.024 1.144 0.077 2.372 0.162 2.729 0.189 1.046 0.079 6.086-0.038 7.993-0.185zM521.794 532.892c0.585-1.892 1.133-3.924 1.568-5.816 0.419-1.823 1.049-5.341 1.049-5.856v-0.317h-142.183v0.317c0 0.515 0.63 4.033 1.049 5.856 0.435 1.891 0.983 3.924 1.568 5.816l0.392 1.267h136.164l0.392-1.267zM524.412 501.221c0-0.103-0.149-1.053-0.331-2.112-0.523-3.045-1.29-6.207-2.287-9.43l-0.392-1.267h-136.164l-0.392 1.267c-0.997 3.224-1.764 6.385-2.287 9.43-0.182 1.059-0.331 2.009-0.331 2.112 0 0.162 9.332 0.187 71.091 0.187s71.091-0.025 71.091-0.187zM510.487 467.852c-5.635-7.403-12.297-13.345-20.441-18.231-9.436-5.662-20.114-9.050-31.397-9.963-4.245-0.343-10.197-0.172-14.556 0.418-9.986 1.354-19.144 4.533-27.498 9.545-8.144 4.886-14.806 10.828-20.441 18.231l-0.81 1.064h115.953l-0.81-1.064zM647.813 564.102c17.411-12.659 35.191-26.367 51.468-39.681 7.168-5.863 16.31-13.546 16.271-13.674-0.033-0.108-6.804-5.808-11.384-9.583-13.583-11.196-26.641-21.452-41.407-32.522-8.657-6.49-20.083-14.842-20.176-14.748-0.024 0.024 0.045 2.463 0.153 5.421 1.242 33.969 1.238 71.287-0.012 106.166-0.074 2.059-0.060 2.384 0.097 2.261 0.101-0.079 2.347-1.717 4.991-3.639zM267.091 560.282c-0.577-17.703-0.716-27.137-0.716-48.477 0-21.769 0.165-32.305 0.777-49.825 0.109-3.136 0.172-5.729 0.139-5.762-0.155-0.155-18.523 13.43-28.479 21.063-13.304 10.199-25.509 19.977-38.049 30.482-1.911 1.601-3.475 2.956-3.475 3.012 0 0.108 6.105 5.276 10.982 9.296 17.345 14.299 35.597 28.44 54.456 42.19 4.273 3.116 4.42 3.21 4.465 2.863 0.026-0.197-0.019-2.376-0.1-4.842zM169.603 476.528c28.469-24.055 60.602-48.533 92.733-70.642 2.216-1.525 4.045-2.784 4.065-2.799 0.042-0.032 0.139-1.141 0.75-8.577 2.845-34.623 7.305-70.112 12.938-102.933 0.96-5.593 2.682-15.194 2.786-15.536 0.065-0.213-1.44-0.687-10.596-3.332-49.815-14.392-95.597-22.238-132.695-22.742-14.591-0.198-29.141 1.005-41.134 3.401-9.78 1.954-17.291 4.397-24.564 7.99-5.66 2.796-9.902 5.773-13.781 9.67-5.291 5.316-8.564 11.387-10.125 18.784-0.715 3.388-1.201 8.831-1.055 11.838 0.657 13.587 4.453 27.233 12.339 44.346 5.928 12.866 14.937 28.063 25.407 42.861 19.539 27.615 46.050 57.41 77.279 86.852 2.605 2.456 3.148 2.912 3.314 2.783 0.109-0.085 1.162-0.969 2.341-1.965zM746.182 478.057c1.148-1.022 5.869-5.548 11.593-11.117 5.615-5.462 14.23-14.208 19.689-19.989 36.914-39.088 62.548-75.243 75.651-106.7 5.663-13.595 8.59-25.247 9.194-36.594 0.227-4.261-0.334-10.067-1.368-14.152-1.841-7.281-5.664-13.609-11.291-18.694-4.785-4.324-10.595-7.758-18.39-10.87-11.081-4.423-25.024-7.141-42.369-8.257-17.154-1.104-37.591-0.098-60.824 2.993-29.192 3.884-62.047 11.217-96.889 21.622-1.93 0.576-3.574 1.072-3.654 1.102-0.103 0.038-0.074 0.426 0.099 1.332 0.58 3.041 2.152 12.048 3.16 18.109 5.291 31.809 9.367 64.974 12.164 98.969 0.223 2.716 0.416 4.947 0.427 4.956s1.746 1.203 3.855 2.651c30.002 20.612 59.030 42.446 85.323 64.179 3.409 2.818 10.405 8.688 12.087 10.141 0.5 0.432 0.932 0.788 0.959 0.791s0.29-0.21 0.585-0.472zM326.348 368.906c26.098-16.067 57.455-33.959 81.903-46.735 1.696-0.886 3.084-1.64 3.085-1.676s-0.217-0.16-0.484-0.276c-0.267-0.116-2.942-1.305-5.945-2.643-17.733-7.902-37.012-15.898-54.911-22.774-8.411-3.231-23.446-8.781-24.104-8.898-0.288-0.051-0.218-0.377-1.627 7.558-4.442 25.016-8.447 53.93-11.216 80.972l-0.3 2.928 3.71-2.327c2.040-1.28 6.489-4.038 9.887-6.13zM596.416 369.545c-2.486-23.131-5.523-45.421-9.098-66.79-0.998-5.963-2.621-15.177-2.688-15.259-0.098-0.12-16.545 5.969-25.779 9.542-9.656 3.737-21.437 8.507-31.712 12.839-11.12 4.688-24.616 10.623-24.467 10.758 0.054 0.049 2.818 1.538 6.142 3.309 27.841 14.833 57.367 31.899 83.757 48.413 3.852 2.41 4.299 2.658 4.334 2.401 0.022-0.158-0.199-2.504-0.49-5.213zM461.928 290.915c35.62-16.827 73.73-32.663 106.802-44.378 1.68-0.595 3.080-1.101 3.111-1.124 0.069-0.051-0.639-3.079-2.411-10.3-10.23-41.696-22.651-77.982-37.141-108.497-6.469-13.623-14.598-27.903-21.586-37.917-5.965-8.549-11.715-15.522-17.732-21.505-5.512-5.48-10.512-9.485-15.794-12.647-11.424-6.841-21.744-8.509-32.731-5.29-2.958 0.866-8.491 3.243-8.358 3.59 0.035 0.090 0.817 1.294 1.738 2.675s2.151 3.313 2.734 4.293c1.629 2.741 5.701 10.994 6.88 13.943 2.516 6.294 4.622 13.976 5.735 20.924 0.952 5.936 0.991 6.552 0.991 15.661 0 7.764-0.018 8.403-0.296 10.787-1.128 9.644-3.638 19.412-7.039 27.394-1.080 2.535-4.687 9.717-6.063 12.072-4.207 7.201-9.312 13.719-15.668 20.006-5.939 5.874-11.591 10.282-18.575 14.488-2.146 1.292-7.559 4.099-10.648 5.521-8.156 3.755-19.225 6.771-28.787 7.844-4.212 0.473-6.262 0.553-13.062 0.509l-6.563-0.042-1.012 3.639c-2.621 9.429-6.363 24.033-7.88 30.756l-0.107 0.474 2.29 0.806c26.487 9.325 57.893 21.98 86.703 34.935 9.823 4.417 25.683 11.788 28.527 13.258 0.429 0.222 0.852 0.406 0.94 0.409s2.34-1.023 5.004-2.282zM363.774 182.616c6.566-0.774 14.342-2.755 19.706-5.021 3.854-1.628 9.328-4.553 12.591-6.728 8.506-5.67 16.034-13.464 21.459-22.216 1.459-2.354 4.775-8.927 5.754-11.408 2.163-5.478 3.842-12.197 4.658-18.65 0.339-2.676 0.338-13.71-0.001-16.376-0.419-3.295-0.988-6.341-1.784-9.547-1.428-5.749-2.707-9.194-5.455-14.688-3.123-6.244-5.535-9.886-10.111-15.271-4.624-5.441-10.949-10.753-17.478-14.677-2.158-1.297-8.383-4.383-10.619-5.263-5.505-2.168-12.246-3.843-18.719-4.651-2.767-0.345-13.353-0.345-16.116 0.001-4.799 0.6-10.35 1.8-14.559 3.148-5.927 1.898-13.307 5.549-18.664 9.232-8.499 5.845-15.92 13.789-21.232 22.732-1.37 2.307-4.148 7.911-5.056 10.202-2.268 5.72-4.055 13.044-4.772 19.56-0.326 2.959-0.328 11.696-0.003 14.686 0.725 6.681 2.371 13.476 4.723 19.495 0.932 2.385 3.75 8.083 5.173 10.462 2.431 4.061 4.322 6.642 8.051 10.982 3.32 3.865 8.034 8.069 12.835 11.448 3.492 2.457 9.797 5.88 14.075 7.64 5.702 2.346 13.563 4.308 19.82 4.947 2.943 0.3 3.12 0.306 8.513 0.265 3.986-0.030 5.377-0.089 7.213-0.306zM302.915 151.638c0.192-0.518 8.402-22.669 18.243-49.225l17.894-48.282h30.338l17.894 48.282c9.842 26.555 18.051 48.706 18.244 49.225l0.349 0.942h-25.539l-6.206-17.936-39.781 0.066-6.246 17.87h-25.54l0.349-0.942zM367.641 116.092c-0.121-0.444-13.251-38.57-13.335-38.72-0.065-0.117-13.319 37.903-13.513 38.761-0.036 0.161 1.807 0.186 13.434 0.186 12.771 0 13.473-0.012 13.414-0.227z"></path>
</svg>
