<!-- Generated by IcoMoon.io -->
<svg version="1.1" xmlns="http://www.w3.org/2000/svg" width="586" height="1024" viewBox="0 0 586 1024">
<title></title>
<g id="icomoon-ignore">
</g>
<path d="M175.819 266.19c-20.015-0.22-37.542 8.343-49.773 21.422s-19.657 30.304-22.418 48.686l-89.446 595.461c-3.131 20.849 5.629 40.147 19.429 53.26s32.694 21.014 52.626 21.014h401.669c19.93 0 38.842-7.903 52.626-21.014s22.484-32.382 19.429-53.215l-86.91-592.97c-5.407-36.874-32.233-69.715-71.919-70.153l-225.313-2.491zM175.502 293.998l225.313 2.491c24.897 0.274 40.737 19.346 44.7 46.376l86.955 592.97c1.63 11.12-2.681 20.983-11.141 29.030s-21.059 13.36-33.423 13.36h-401.669c-12.362 0-24.997-5.311-33.469-13.36s-12.716-17.898-11.051-28.985l89.401-595.416c2.036-13.553 7.619-25.658 15.262-33.831s16.844-12.771 29.121-12.636zM435.371 507.627c-9.615-1.371-13.68 3.928-15.444 5.888s-2.499 3.251-3.306 4.574c-3.228 5.291-6.119 11.312-11.186 18.523-10.062 14.317-26.26 30.997-58.332 36.186l-132.742-1.585c-23.414-7.726-37.477-23.728-46.512-37.182-4.613-6.869-7.137-12.195-11.232-17.708-1.024-1.378-2.008-2.89-4.801-4.982s-10.67-5.254-17.663-2.038c-6.993 3.216-8.403 7.896-9.33 10.416s-1.203 4.359-1.495 6.295l-56.928 378.209c-2.582 17.159 6.143 32.854 18.161 42.436s27.521 14.764 43.885 14.764h317.476c16.364 0 31.91-5.183 43.93-14.764s20.713-25.317 18.116-42.481l-57.336-378.889c-0.288-1.902-0.491-3.645-1.54-6.386-0.524-1.371-1.231-3.082-3.125-5.344s-5.79-5.248-10.598-5.933zM150.457 562.97c11.906 14.937 28.342 31.393 55.57 39.809 1.422 0.457 3.058 0.722 4.755 0.725l138.041 1.675c0.954-0.002 1.888-0.086 2.795-0.246 36.24-5.63 57.819-24.424 72.068-41.512l52.309 345.601c0.669 4.423-0.844 8.019-6.295 12.364s-14.617 7.699-23.777 7.699h-317.476c-9.16 0-18.282-3.355-23.731-7.699s-7.007-7.934-6.34-12.363l52.082-346.054zM164.135 189.199c-29.218 0-53.169 23.952-53.169 53.169s23.952 53.169 53.169 53.169h255.838c29.218 0 53.169-23.952 53.169-53.169s-23.952-53.169-53.169-53.169h-255.838zM164.135 217.006h255.838c14.284 0 25.362 11.078 25.362 25.362s-11.078 25.362-25.362 25.362h-255.838c-14.284 0-25.362-11.078-25.362-25.362s11.078-25.362 25.362-25.362zM154.579 12.526c-25.468 0-46.421 20.954-46.421 46.421v106.022c0 25.468 20.954 46.421 46.421 46.421h272.776c25.468 0 46.376-20.954 46.376-46.421v-106.022c0-25.468-20.908-46.421-46.376-46.421h-272.776zM154.579 40.107h272.776c10.673 0 18.84 8.168 18.84 18.84v106.022c0 10.673-8.168 18.84-18.84 18.84h-272.776c-10.673 0-18.84-8.168-18.84-18.84v-106.022c0-10.673 8.168-18.84 18.84-18.84zM188.35 80.020c-4.789 6.608-13.795 7.937-20.152 2.973s-7.676-14.354-2.951-21.013c4.725-6.658 13.717-8.082 20.122-3.185s7.666 14.569 3.006 21.276l-11.533-9.132zM414.653 79.393c-4.789 6.608-13.795 7.937-20.152 2.973s-7.676-14.354-2.951-21.013c4.725-6.658 13.717-8.082 20.122-3.185s7.666 14.569 3.006 21.276l-11.533-9.132zM297.814 79.393c-4.789 6.608-13.795 7.937-20.152 2.973s-7.676-14.354-2.951-21.013c4.725-6.658 13.717-8.082 20.122-3.185s7.666 14.569 3.006 21.276l-11.533-9.132z"></path>
</svg>
