<?xml version="1.0" encoding="UTF-8" standalone="no"?>
<!-- Created with Inkscape (http://www.inkscape.org/) -->

<svg
   xmlns:dc="http://purl.org/dc/elements/1.1/"
   xmlns:cc="http://creativecommons.org/ns#"
   xmlns:rdf="http://www.w3.org/1999/02/22-rdf-syntax-ns#"
   xmlns:svg="http://www.w3.org/2000/svg"
   xmlns="http://www.w3.org/2000/svg"
   xmlns:sodipodi="http://sodipodi.sourceforge.net/DTD/sodipodi-0.dtd"
   xmlns:inkscape="http://www.inkscape.org/namespaces/inkscape"
   width="130mm"
   height="180mm"
   viewBox="0 0 460.62992 637.79527"
   id="svg2"
   version="1.1"
   inkscape:version="0.91 r13725"
   sodipodi:docname="arrow.svg">
  <defs
     id="defs4" />
  <sodipodi:namedview
     id="base"
     pagecolor="#ffffff"
     bordercolor="#666666"
     borderopacity="1.0"
     inkscape:pageopacity="0.0"
     inkscape:pageshadow="2"
     inkscape:zoom="7.9195959"
     inkscape:cx="237.69652"
     inkscape:cy="63.991776"
     inkscape:document-units="px"
     inkscape:current-layer="layer1"
     showgrid="false"
     inkscape:window-width="1543"
     inkscape:window-height="879"
     inkscape:window-x="57"
     inkscape:window-y="21"
     inkscape:window-maximized="1" />
  <metadata
     id="metadata7">
    <rdf:RDF>
      <cc:Work
         rdf:about="">
        <dc:format>image/svg+xml</dc:format>
        <dc:type
           rdf:resource="http://purl.org/dc/dcmitype/StillImage" />
        <dc:title></dc:title>
      </cc:Work>
    </rdf:RDF>
  </metadata>
  <g
     inkscape:label="Ebene 1"
     inkscape:groupmode="layer"
     id="layer1"
     transform="translate(0,-414.56693)">
    <path
       style="opacity:1;fill:#000000;fill-opacity:1;fill-rule:nonzero;stroke:#ffffff;stroke-width:1.20000005;stroke-linecap:round;stroke-linejoin:round;stroke-miterlimit:4;stroke-dasharray:none;stroke-opacity:1"
       id="path4162"
       d="m 138.81564,517.50926 c -0.20074,15.94526 3.02388,31.69149 6.02708,47.27999 4.79118,20.56513 7.8619,41.47268 11.42778,62.27641 4.17565,22.71981 9.6104,45.17739 13.77627,67.89714 2.22335,13.45035 3.47294,27.05337 4.34036,40.65358 0.87646,10.27769 1.2017,20.57492 1.42889,30.88204 0.14923,3.97702 0.22327,7.95539 0.33458,11.93318 -0.0823,3.08611 -0.0932,6.17527 -0.0652,9.26245 -0.31449,4.02228 0.3123,7.93091 0.99322,11.87923 0.60426,6.5388 1.22742,12.96546 2.73303,19.36324 0.9298,3.34131 1.08225,6.77818 2.75419,9.86258 1.27816,1.58877 1.72689,3.45775 1.98194,5.44162 0.5367,3.06955 1.46974,6.07897 2.27547,9.09516 0.0761,1.86702 1.11609,2.73787 1.95982,4.23865 0.6847,1.01715 0.81564,2.25617 1.31606,3.34147 0,0 -36.99645,21.16986 -36.99645,21.16986 l 0,0 c -0.607,-1.11256 -0.87059,-2.04063 -1.27205,-3.20819 -1.02235,-1.73858 -2.54333,-3.17579 -2.50461,-5.34712 -0.64051,-3.25597 -1.41305,-6.48494 -2.59176,-9.5944 -0.0671,-1.58237 -0.1551,-2.72532 -1.14991,-4.05016 -1.68825,-3.50496 -2.41802,-7.10628 -2.99706,-10.93664 -1.38219,-6.47808 -2.13811,-12.96702 -2.7928,-19.55307 -0.7456,-4.14998 -1.99058,-8.14122 -1.59217,-12.40285 0.0315,-3.07705 0.0267,-6.15577 -0.0342,-9.23222 0.14984,-4.0627 0.22926,-8.1286 0.31119,-12.1931 0.0264,-10.34122 -0.16354,-20.68488 -0.65482,-31.01525 -0.93615,-13.51365 -2.57122,-26.95058 -3.96433,-40.42097 -3.16134,-22.94379 -7.93646,-45.59298 -13.12258,-68.15765 -3.89436,-20.68471 -6.78541,-41.55957 -11.70695,-62.03788 -3.24487,-15.63895 -6.32469,-31.34297 -7.84628,-47.253 0,0 37.63129,-19.1741 37.63129,-19.1741 z"
       inkscape:connector-curvature="0" />
    <path
       style="opacity:1;fill:#000000;fill-opacity:1;fill-rule:nonzero;stroke:#ffffff;stroke-width:1.20000005;stroke-linecap:round;stroke-linejoin:round;stroke-miterlimit:4;stroke-dasharray:none;stroke-opacity:1"
       id="path4164"
       d="m 221.14969,805.86029 c 0.51972,-15.15238 0.83157,-30.30384 0.76283,-45.46623 -0.37614,-18.0688 0.11452,-36.13456 -0.10124,-54.20513 0.11383,-19.36386 0.092,-38.72799 0.10017,-58.09332 -0.31414,-14.81658 -0.22904,-29.63441 -0.34774,-44.45275 0.2059,-13.49526 0.0588,-26.98648 -0.0939,-40.48204 0.0411,-9.22309 -0.028,-18.4472 -0.23605,-27.66815 0.26778,-8.84322 0.0361,-17.68797 0.15875,-26.53369 -0.20495,-8.76312 0.0363,-17.52321 0.003,-26.28595 0.0198,-5.8773 -0.24511,-11.75006 -0.29629,-17.62621 -0.5952,-2.95637 0.80468,-5.15611 1.66256,-7.79233 0,0 39.30159,-16.49635 39.30159,-16.49635 l 0,0 c -1.584,0.29161 -0.98411,0.97939 -1.82516,2.14474 -0.87132,1.2073 -1.76878,0.87217 -1.33681,2.88277 -0.0516,5.97677 -0.31432,11.95027 -0.29629,17.92815 -0.0334,8.76179 0.20772,17.52097 0.003,26.2832 0.12363,8.79178 -0.1109,17.58274 0.15875,26.37192 -0.20511,9.3012 -0.27794,18.60541 -0.23606,27.9087 -0.15129,13.52746 -0.30017,27.05065 -0.0939,40.57773 -0.11867,14.93645 -0.0352,29.87238 -0.34774,44.80711 0.008,19.33131 -0.0137,38.66142 0.10018,57.99123 -0.21358,18.10499 0.27312,36.20505 -0.10124,54.30831 -0.0673,14.90352 0.23122,29.7959 0.76283,44.68886 0,0 -37.70062,19.20943 -37.70062,19.20943 z"
       inkscape:connector-curvature="0" />
    <path
       style="opacity:1;fill:#000000;fill-opacity:1;fill-rule:nonzero;stroke:#ffffff;stroke-width:1.20000005;stroke-linecap:round;stroke-linejoin:round;stroke-miterlimit:4;stroke-dasharray:none;stroke-opacity:1"
       id="path4166"
       d="m 36.961211,880.5212 c 14.77552,0.45962 29.56303,0.38747 44.34424,0.38236 16.28875,-1.28129 28.284239,4.32189 41.258979,13.42758 10.56886,7.56553 21.79033,14.27179 33.36791,20.1792 9.89751,4.88376 19.21063,10.65876 27.59444,17.83526 4.18482,3.61998 7.64888,8.00113 11.70212,11.75047 2.71403,2.51054 5.88046,4.4731 8.76076,6.77915 3.59249,4.68365 6.31736,8.14387 11.02558,11.84088 2.9088,4.20786 7.46063,6.24102 11.37144,9.17237 7.512,3.48328 15.43521,-0.16017 16.51229,-23.92807 2.60112,-20.85451 7.86514,-46.19827 13.22994,-66.31444 3.01334,-11.29904 6.79918,-22.37779 10.19877,-33.56668 3.85392,-10.56393 7.57189,-21.17846 11.56177,-31.69179 9.02684,-23.78574 12.24862,-31.9884 23.44907,-54.18568 10.11553,-20.04715 21.94995,-39.07508 33.77318,-58.13348 16.8724,-24.36789 30.1524,-50.89353 45.48753,-76.1921 4.77342,-8.7425 11.63501,-15.79895 18.56667,-22.80818 4.11994,-4.05675 7.9135,-8.41345 11.70619,-12.77035 l 38.94114,-16.19812 0,0 c -4.36433,4.05636 -7.83521,8.94228 -12.27339,12.94121 -6.61835,7.36472 -14.19673,13.85631 -19.48749,22.37144 -17.02642,25.14767 -30.71623,52.33325 -48.06306,77.28744 -17.32737,27.12404 -34.84068,54.37774 -48.21185,83.74549 -4.34779,9.54929 -8.16254,19.33467 -12.00594,29.09789 -4.12674,10.48296 -7.93436,21.08876 -11.90154,31.63314 -3.46366,11.11752 -7.43439,22.08958 -10.39097,33.35257 -11.46518,43.67617 -15.24645,88.74661 -12.56751,133.74774 -0.34729,4.4065 -4.56503,23.4184 -5.45726,24.2346 -3.56399,13.8362 0.44641,14.3713 -31.48135,13.3639 8.44256,4.4465 5.01861,5.128 -5.34605,-2.8736 -6.52854,-3.5971 -11.77686,-8.6122 -16.58931,-14.2868 -6.39909,-7.3162 -12.87203,-14.4993 -19.61162,-21.51497 -5.56488,-4.85579 -11.92493,-8.65639 -17.00533,-14.07932 -4.41029,-3.45987 -7.89831,-7.36775 -11.15153,-11.86908 -7.05568,-5.93935 -13.50781,-12.35686 -20.0134,-18.89846 -8.21422,-6.93867 -17.63881,-12.03203 -27.12276,-17.03568 -11.53757,-6.17421 -22.535119,-13.36623 -33.281049,-20.81824 -13.05904,-8.69202 -23.74978,-12.4161 -39.66232,-11.53514 -15.13222,-0.005 -30.26979,-0.0653 -45.3967796,0.38235 z"
       inkscape:connector-curvature="0"
       sodipodi:nodetypes="cccccsccccscsscccccccccsscscccccccccccccc" />
  </g>
</svg>
